<svg width="32px" height="32px" viewBox="0 0 32 32" xmlns="http://www.w3.org/2000/svg"><path d="M18.559 17.873a.508.508 0 0 1 .023.022l.332.331a1 1 0 0 1 .966.26l3.775 3.775a1 1 0 0 1-1.414 1.414l-3.776-3.776a1 1 0 0 1-.259-.966l-.33-.331a.508.508 0 0 1-.02-.02 5.952 5.952 0 0 1-3.876 1.427c-3.307 0-5.987-2.69-5.987-6.007 0-3.317 2.68-6.007 5.987-6.007 3.306 0 5.987 2.69 5.987 6.007 0 1.475-.53 2.825-1.408 3.87zm-4.58.136c2.201 0 3.988-1.792 3.988-4.007 0-2.214-1.787-4.007-3.987-4.007s-3.987 1.793-3.987 4.007c0 2.215 1.786 4.007 3.987 4.007z"/></svg>