<svg xmlns="http://www.w3.org/2000/svg" width="32" height="32" viewBox="0 0 32 32">
  <path d="M16 6C10.48 6 6 10.48 6 16s4.48 10 10 10 10-4.48 10-10S21.52 6 16 6zm3.61 6.34c1.07 0 1.93.86 1.93 1.93 0 1.07-.86 1.93-1.93 1.93-1.07 0-1.93-.86-1.93-1.93-.01-1.07.86-1.93 1.93-1.93zm-6-1.58c1.3 0 2.36 1.06 2.36 2.36 0 1.3-1.06 2.36-2.36 2.36-1.3 0-2.36-1.06-2.36-2.36 0-1.31 1.05-2.36 2.36-2.36zm0 9.13v3.75c-2.4-.75-4.3-2.6-5.14-4.96 1.05-1.12 3.67-1.69 5.14-1.69.53 0 1.2.08 1.9.22-1.64.87-1.9 2.02-1.9 2.68zM16 24c-.27 0-.53-.01-.79-.04v-4.07c0-1.42 2.94-2.13 4.4-2.13 1.07 0 2.92.39 3.84 1.15C22.28 21.88 19.39 24 16 24z"/>
</svg>
