<svg width="100px" height="32px" viewBox="0 0 100 32" xmlns="http://www.w3.org/2000/svg"><path d="M11.976 9.168C12.242 8.299 12.76 8 13.428 8h4.498l-4.835 14.59c-.386 1.124-.772 1.512-1.927 1.512H6.761c-1.154 0-1.54-.389-1.924-1.511L0 8h4.498c.668 0 1.186.3 1.453 1.168l2.107 7.03.773 2.728h.265l.774-2.728 2.106-7.03zM19.457 8h5.174v16.034h-5.174V8zm19.852.94c.317-.649.609-.94 1.355-.94h6.297v16.034h-4.886V14.32h-.241l-3.031 5.347c-.342.598-.588.841-1.212.841h-1.476c-.626 0-.837-.214-1.211-.84l-3.031-5.348h-.24v9.713h-4.74V8h6.32c.746 0 1.049.355 1.356.94l2.333 4.82h.216l2.19-4.82zM59.4 8c1.756 0 2.672.3 3.322.919.985.914 1.828 2.678 1.828 7.097 0 4.422-.843 6.184-1.828 7.101-.65.62-1.566.917-3.322.917h-5.606c-1.758 0-2.673-.298-3.322-.917-.986-.916-1.83-2.679-1.83-7.1 0-4.42.844-6.183 1.83-7.098.649-.62 1.564-.919 3.322-.919H59.4zm-.627 12.118c.17-.16.458-.596.458-4.102 0-3.504-.289-3.939-.458-4.098-.143-.139-.384-.184-1.106-.184h-2.142c-.721 0-.962.045-1.106.184-.17.16-.457.594-.457 4.098 0 3.53.287 3.943.457 4.102.145.139.386.182 1.106.182h2.142c.723 0 .963-.043 1.106-.182zm18.535-3.92V8h4.884v16.034h-3.585c-1.108 0-1.637-.297-2.214-1.168l-5.198-7.994h-.12v9.162H66.19V8h4.405c1.105 0 1.66.3 2.214 1.168l4.38 7.03h.12zm20.983-6.845c1.156 1.1 1.708 2.657 1.708 6.663 0 4.01-.552 5.588-1.708 6.688-1.01.963-2.478 1.33-5.149 1.33h-8.688V8h8.688c2.67 0 4.139.39 5.149 1.353zm-4.068 10.673c.29-.275.458-.985.458-4.01 0-3.023-.145-3.71-.458-4.03-.289-.275-.697-.366-1.877-.366h-2.718v8.793h2.718c1.156 0 1.59-.113 1.877-.387z"/></svg>